<?xml version="1.0" encoding="utf-8"?>
<!-- Generator: Adobe Illustrator 16.0.0, SVG Export Plug-In . SVG Version: 6.00 Build 0)  -->
<!DOCTYPE svg PUBLIC "-//W3C//DTD SVG 1.1//EN" "http://www.w3.org/Graphics/SVG/1.1/DTD/svg11.dtd">
<svg version="1.1" id="Layer_1" xmlns="http://www.w3.org/2000/svg" xmlns:xlink="http://www.w3.org/1999/xlink" x="0px" y="0px"
	 width="130px" height="130px" viewBox="0 0 130 130" enable-background="new 0 0 130 130" xml:space="preserve">
<g>
	<g>
		<g>
			<g>
				<g>
					<polygon fill="#FF4200" points="76.845,83.352 76.92,99.473 69.845,103.556 69.845,87.394 					"/>
					<polygon fill="#BA2C00" points="62.847,99.516 69.845,103.556 69.845,87.394 62.771,83.308 					"/>
					<polyline fill="#CC861F" points="69.845,87.394 62.771,83.308 62.847,99.516 					"/>
				</g>
				<g>
					<polygon fill="#9FA4A5" points="41.889,119.741 69.884,103.578 83.884,111.659 55.886,127.821 					"/>
					<polygon fill="#BA2C00" points="62.847,99.516 62.847,107.596 76.92,115.721 76.92,107.618 					"/>
					<polygon fill="#E23A05" points="83.843,103.556 83.843,111.638 76.92,115.721 76.92,107.618 					"/>
					<polygon fill="#FF6700" points="76.92,99.473 83.843,103.556 76.92,107.618 69.884,103.556 					"/>
				</g>
			</g>
			<g>
				<g>
					<polygon fill="#FF4200" points="55.888,95.496 55.963,111.616 48.887,115.699 48.887,99.536 					"/>
					<polygon fill="#BA2C00" points="41.889,111.68 48.887,115.72 48.887,99.558 41.814,95.473 					"/>
					<polyline fill="#E23A05" points="48.887,99.558 41.814,95.473 41.889,111.68 					"/>
				</g>
				<g>
					<polygon fill="#BA2C00" points="41.889,111.68 41.889,119.762 55.963,127.887 55.963,119.784 					"/>
					<polygon fill="#E23A05" points="62.886,115.72 62.886,123.802 55.963,127.887 55.963,119.784 					"/>
					<polygon fill="#E23A05" points="62.847,107.596 76.92,115.721 76.92,112.947 62.847,104.821 					"/>
					<polygon fill="#BA2C00" points="76.92,115.721 83.843,111.638 83.843,108.863 76.92,112.947 					"/>
					<polygon fill="#E23A05" points="41.889,119.762 55.963,127.887 55.963,125.112 41.889,116.987 					"/>
					<polygon fill="#BA2C00" points="55.963,127.887 62.886,123.802 62.886,121.028 55.963,125.112 					"/>
					<polygon fill="#FF6700" points="55.963,111.638 62.886,115.72 55.963,119.784 48.925,115.72 					"/>
				</g>
			</g>
		</g>
		<g>
			<g>
				<g>
					<polygon fill="#FFCE00" points="52.968,60.534 91.283,38.409 91.283,85.349 52.968,107.471 					"/>
					<polyline fill="#FFB000" points="52.968,107.471 52.968,60.534 91.283,38.409 					"/>
					<polygon fill="#FF6700" points="14.647,38.409 52.968,60.534 52.968,107.471 14.647,85.349 					"/>
					<polyline fill="#DD5E00" points="14.647,38.409 52.968,60.534 52.968,107.471 					"/>
					<polygon fill="#FFC200" points="14.647,38.409 52.968,16.287 91.283,38.409 52.968,60.534 					"/>
					<polyline fill="#FFB000" points="91.283,38.409 52.968,60.534 14.647,38.409 					"/>
				</g>
			</g>
			<g>
				<g>
					<polygon fill="#FFCE00" points="27.406,18.806 38.234,12.554 38.234,25.819 27.406,32.071 					"/>
					<polyline fill="#FFB000" points="27.406,32.071 27.406,18.806 38.234,12.554 					"/>
					<polygon fill="#FF6700" points="16.576,12.554 27.406,18.806 27.406,32.071 16.576,25.819 					"/>
					<polyline fill="#DD5E00" points="16.576,12.554 27.406,18.806 27.406,32.071 					"/>
					<polygon fill="#FFC200" points="16.576,12.554 27.406,6.302 38.234,12.554 27.406,18.806 					"/>
					<polyline fill="#FFB000" points="38.234,12.554 27.406,18.806 16.576,12.554 					"/>
				</g>
			</g>
			<g>
				<g>
					<polygon fill="#FFB000" points="73.502,36.26 103.072,19.187 103.072,55.413 73.502,72.485 					"/>
					<polyline fill="#FF9D00" points="73.502,72.485 73.502,36.26 103.072,19.187 					"/>
					<polygon fill="#FF6700" points="43.927,19.187 73.502,36.26 73.502,72.485 43.927,55.413 					"/>
					<polyline fill="#DD5E00" points="43.927,19.187 73.502,36.26 73.502,72.485 					"/>
					<polygon fill="#FFC200" points="43.927,19.187 73.502,2.113 103.072,19.187 73.502,36.26 					"/>
					<polyline fill="#FFB000" points="103.072,19.187 73.502,36.26 43.927,19.187 					"/>
				</g>
				<g>
					<g>
						<polygon fill="#070606" points="77.509,48.414 77.509,55.736 83.884,52.057 83.838,44.761 						"/>
						<polygon fill="#070606" points="92.691,39.589 92.691,46.911 99.065,43.232 99.02,35.937 						"/>
					</g>
					<g>
						<polyline fill="#333232" points="77.509,55.736 83.884,52.057 83.838,44.761 						"/>
						<polyline fill="#333232" points="92.691,46.911 99.065,43.232 99.02,35.937 						"/>
					</g>
				</g>
			</g>
		</g>
	</g>
	<g>
		<g>
			<polygon fill="#FF8B00" points="97.869,68.529 97.869,75.286 115.353,65.191 115.353,58.434 			"/>
			<polyline fill="#FF6700" points="115.353,58.434 97.869,68.529 97.869,75.286 			"/>
			<polygon fill="#FF6700" points="80.382,58.434 97.869,48.339 115.353,58.434 97.869,68.529 			"/>
			<polyline fill="#FF4200" points="115.353,58.434 97.869,68.529 80.382,58.434 			"/>
			<polygon fill="#BA2C00" points="97.943,68.529 97.943,75.286 80.458,65.191 80.458,58.434 			"/>
			<polyline fill="#BA2C00" points="80.458,58.434 97.943,68.529 97.943,75.286 			"/>
		</g>
	</g>
</g>
</svg>
